<mxfile host="65bd71144e">
    <diagram id="0e28SevO4S29ltOuUxns" name="Page-1">
        <mxGraphModel dx="1113" dy="787" grid="1" gridSize="10" guides="1" tooltips="1" connect="1" arrows="1" fold="1" page="1" pageScale="1" pageWidth="1100" pageHeight="850" math="0" shadow="0">
            <root>
                <mxCell id="0"/>
                <mxCell id="1" parent="0"/>
                <mxCell id="5" value="" style="group;fillColor=none;fillStyle=auto;" parent="1" vertex="1" connectable="0">
                    <mxGeometry x="270" y="410" width="303.8" height="310" as="geometry"/>
                </mxCell>
                <mxCell id="12" value="" style="group" parent="5" vertex="1" connectable="0">
                    <mxGeometry width="303.80000000000007" height="310" as="geometry"/>
                </mxCell>
                <mxCell id="2" value="" style="rounded=1;whiteSpace=wrap;html=1;fillColor=#60a917;fontColor=#ffffff;strokeColor=none;dashed=1;dashPattern=12 12;shadow=0;glass=0;sketch=1;curveFitting=1;jiggle=2;arcSize=27;opacity=80;" parent="12" vertex="1">
                    <mxGeometry width="303.80000000000007" height="310" as="geometry"/>
                </mxCell>
                <mxCell id="3" value="" style="shape=image;verticalLabelPosition=bottom;verticalAlign=top;imageAspect=0;aspect=fixed;image=data:image/png,iVBORw0KGgoAAAANSUhEUgAAAgAAAAIACAYAAAD0eNT6AAAABHNCSVQICAgIfAhkiAAAAAlwSFlzAAAOwwAADsMBx2+oZAAAABl0RVh0U29mdHdhcmUAd3d3Lmlua3NjYXBlLm9yZ5vuPBoAACAASURBVHic7d13uF1Vmfjx70pCETAbFWlWpHcMvbcQSAJIdQZxRsUyP7HDiKB0UEQBRx2xizOKzgjSIQkJkARC7x0Cio1iYVh0Ibnr98c+YIAQbu7de69zzv5+nuc8iXKz1nvOvfus9673PWuHlBKS2iH8Nq4OHAisB6zd+b/vAG4FTk0rFffkik1Ss4IJgNT/wm/jm4FjgI8Co17ly+YAPwSOSisVf2kqNkl5mABIfS78Nm4O/BpYYZD/5CFg77RScVV9UUnKbUTuACTVJ/w2fgyYzuAXfzpfO73zbyX1KXcApD4UfhMXBb4NDHcR/wHwqfSu4rnhRyWpm5gASH0m/CauQLnlv3lFQ14F7J3eVTxU0XiSuoAlAKmPhN/EzYEbqG7xpzPWDZ2xJfUJEwCpT4TfDKneP1hlX8Bv7AuQ+oUlAKnHVVjvHyz7AqQ+YAIg9bBwf+X1/sEq+wJWti9A6lWWAKQeFe6vpd4/WGVfwP32BUi9ygRA6kHh/vhR6qv3D1bZF1DGIqnHWAKQeki4Py4KfAv4t9yxvMz3gU+nle0LkHqFCYDUIzr1/jOBLXLH8iquBPaxL0DqDSYAUg8I9y30ef65lPcRWMX7CEjdzh4AqcuF+7qi3j9YZV/AffYFSN3OHQCpS4X7urbeP1hlX8Aq9gVI3cgEQOpC4b6ur/cPVtkXsIp9AVK3MQGQukyYHTejrPevmDuWijwI7J1WLa7OHYikf7AHQOoiYXb8KDCDZhb/2zqPuq0IzOg8N0ldwh0AqQuE2Y3X+88APtT5+2nAvg3NW/YFrGpfgJSbCYCUWZjdaL1/APhSWrX46stiOBT4Ms3sCpZ9AavaFyDlZAIgZdRwvf//gP3SqsWUV4llZ+CXwBsaiMW+ACkzEwApk3Bv/Cjwn8CiDUx3G7BnWq24/zViWhk4G1i3gZieAz6ZVit+2MBckl7GBEBqWLg3T70/rVY8NZgvDvfGJcnRF7CafQFSk0wApAaFe+PylFv+zdX7V3tpvX+wwr2N9wXsnVYrHm5gLkmYAEiNCfdmqPevNv96/2CFezP0BaxmX4DUBM8BkBoQ7o0fodnP92883MUfoDPGxjR5XkD5WkmqmTsAUo3CPZnq/asPrt4/WOGeTH0Bq9sXINXFBECqSbgnQ71/9aHV+wcr3JOhL2B1+wKkOpgASDUI92So968+/C3/wQj3ZOgLWN2+AKlq9gBIFQv3NFrvvx3YuKnFH6Az18aduetW9gXcY1+AVDV3AKSKhLvjIpT1/v/X0JRlvX+Nauv9gxXubrwv4HvAp9MaxfMNzSf1NRMAqQLh7gz1/jXqrfcPVrg7Q1/AGvYFSMNlAiANU7g7Q71/jea2/Acj3J2hL2AN+wKk4bAHQBqGcHeGen+XLf4AnZia7Qu4274AaTjcAZCGoG31/sGyL0DqHSYA0kIKd8XlgTOBLRuYrqz3r9kd9f7BCnc12hcwC9gnrWlfgLQwTACkhRDuipsCZ9FkvX/N7tvyH4xwV+N9AXulNYtrGphL6gv2AEiDFO6KHwFm0mS9v0cXf4BO7E32BczsfI8kDYI7ANJrCHdlqvev2d31/sEKd2XqC1jTvgBpQUwApAWw3l8d+wKk7mICIL2KcGfj9f73pbWKyQ3MlU24M+4C/IIm+wLWsi9Amh97AKT5CHfGD9P05/v7fPEH6DzHZs8LKL+Xkl7GHQBpHuHOxuv9ZwIfTGv1R71/sMKdcUngp8A+DU1Z9gWsZV+A9AITAKkj3Jmh3r9Wf9b7ByvcmaEvYC37AiQwAZAA6/052Rcg5WECoNYLd8QPA98BFmtgutuBPdLaxf0NzNUzwh1xZeAcYJ0Gpvs78Im0dvHjBuaSupYJgFor3BEXAb4JfLyhKct6/9rtqvcPVrij8b6A7wKfSWvbF6B2MgFQK4U7MtT71253vX+wwh0Z+gLWti9A7WMCoNYJd8RNgV8Db2lgurLev7b1/oUR7mi0L+BPwN5pbfsC1C4mAGqVcHuGev861vuHItyeoS9gHfsC1B4mAGqFcHumev861vuHI9yeqS9gHfsC1P9MANT3wu0Z6v3rWO+vUrg9Q1/AOvYFqL+ZAKivhdsz1PvXsd5fh3B7hr6AdewLUP8yAVDfCrdlqPeva72/TuG2DH0B69oXoP5kAqC+E27LVO9f13p/E8JtmfoC1rUvQP3FBEB9JdwWl6NckLdqYLoB4PC0bnFCA3PpZcJt8TDgeJrpC7gC2CetWzzSwFxSI0wA1DfCbRnq/eta788p3JahL2Bd+wLUH5rInKXader9M2hm8b8d2NjFP7/O92Bjyu9J3d4CzOj8rEk9zx0A9bRwa6Z6/3rW+7tJuDVTX8B69gWod5kAqGeFWzPU+9ez3t/Nwq0Z+gLWsy9AvckEQD0p3Bo3Ac6iyXr/em7594Jwa+N9AXul9YprG5hLqpQ9AOo54dZ4ADCTJuv9Lv49o/O9arIvYGbnZ1LqKe4AqGd06v3/ARzY0JTW+3tYhr6AU4HP2hegXmECoJ4QbslQ71/fen8/CLdk6AtY374AdT8TAHW9cEuGev/6bvn3k3BLhr6A9e0LUHezB0BdLdySod7v4t93Ot/TZvsCbrEvQN3NHQB1pXBLlnr/h9L6xZMNzacMwi1xKeA0mu4LWN++AHUfEwB1Hev9qpt9AZIJgLpMuLnRev9jwH5pA7f82yjcHHcBfgks3cB0ZV/ABvYFqHvYA6CuEW5uvN6/kYt/e3W+9xvRZF/AzfYFqHu4A6Dsws2Z6v0bWO8XhJsz9QVsYF+A8jIBUFbh5gz1/g2s9+uVws0Z+gI2sC9A+ZgAKJtwU4Z6/7vd8terCzdl6At4t30BysMeAGURbsrw+X4Xf72Gzs9Is+cF3GRfgPJwB0CNCjdlqve/23q/Bi/clKkv4N32Bag5JgBqTLgpQ73/3db7NXThpgx9Ae+2L0DNMAFQI6z3q1fZF6B+ZQKg2oUb44eA7wKLNTDd7cCeaUxxXwNzqSXCjXEV4GxgnQam+zvw8TSmOK2BudRiJgCqTbgxLgJ8A/hEQ1OW9f4x1vtVvXBjpr6AMfYFqB4mAKpFuDEuB5wBbN3AdGW9f4z1ftUv3NhoX8DlwL5pjH0Bqp4JgCoXboybAL8G3trAdI8B70tjikkNzCUBEG5stC/gj8DeaYx9AaqW5wCoUp16/0yaWfzvADZ28VfT0pgXzwu4o4Hp3grM7FxbUmXcAVAlwg2N1/t/DXwwbWi9X/mEG+JSwE+BvRua8jvA59KG9gVo+EwANGzhhgz1/g2t96t7hBsy9AVsaF+AhscEQMMSbogbU36+v7l6/4Zu+av7hBvieOAXNNcXsFfasLiugbnUp+wB0JCFG+KHKH8baa7e7+KvLtX52WyyL+DyzjUoDYk7AFpo4fpM9f6NrPer+4XrM/UFbGRfgBaOCYAWSrg+Q71/I+v96j3h+gx9ARvZF6DBMwHQoIXrM9T7N3LLX70rXJ+hL2Aj+wI0OPYAaFDC9Rnq/S7+6nGdn+Fm+wKuty9Ag+MOgBbIer80fPYFqBuZAOhVhevispQ32Gmq3n9E2rj4SgNzSVmE6+IXgeNori9gn7Rx8ecG5lIPMgHQfIXrMtT7N3bLX/0vXJehL2Bj+wL0SvYA6BXCdfGDNF3vd/FXS3R+1pvtCyivaekl3AHQi8J1mer9G1vvV/uE6zL1BWxsX4BKJgACrPdLudgXoFxMAES4NkO9fxO3/KUXhGsz9AVsYl9A29kD0HLh2gz1fhd/6SU610SzfQHX2hfQdu4AtFS4Ni4CnAJ8sqEpy3r/Jtb7pVcTrm28L+A/gYPSJvYFtJEJQAuFa+OylOf5b9PAdGW9fxPr/dJghWsb7QuYCeybNrEvoG1MAFomXJOh3r+pW/7SwgrXZOgL2NS+gDaxB6BFwjUZ6v0u/tKQdK6dZvsCrrEvoE3cAWiBcE0cRfn5/mbr/Zta75eGK1yTpS/gc2nTYk5D8ykTE4A+F67JUO/f1Hq/VLVwTYa+gE3tC+hnJgB9zHq/1F/sC1CVTAD6VLg6fhD4LrB4A9PdAeyRNivua2AuqdXC1XEV4Bxg7Qamexb4eNqs+GkDc6lhJgB9Jlydqd6/mfV+qSnh6kx9AZvZF9BPTAD6SLg6Q71/M+v9Ui7h6gx9AZvZF9AvTAD6RLg6bgScTZP1/s2s90u5hasb7wvYM21WXN/AXKqZ5wD0gU69v9nP97v4S12hcy02e17A1Z4X0A/cAehh4apM9f7NrfdL3SZclakvYHP7AnqVCUCPCldlqPdvbr1f6nbhqgx9AZvbF9CLTAB6ULgqQ71/c7f8pV4RrsrQF7C5fQG9xh6AHhOuih+g6Xq/i7/UUzrXbLN9AeV7k3qIOwA9IlwZRwGnAJ9qaMqy3r+F9X6pV4UrG+8L+DZwUNrCvoBeYALQA8KVzdf7gRPSFoU/HFKPC1fGABxG030BW9gX0O1MALpcuDJuRHme/9samK6s92/hlr/Ub8KVjfYF/AHYK21hX0A3swegi4UrX6z3N7H4l/V+F3+pL3Wu7ab6At4GXN55D1OXcgegC1nvl1QX+wL0AhOALhNmZar3b2m9X2qLMCtTX8CW9gV0ExOALhJmZaj3b+mWv9RWYVaGvoAt7QvoFvYAdIkwK0O938VfarXOe0CzfQGz7AvoFu4AZBZmNV7vPwv4QNrSer+kUpgVlwL+C9iroSnLvoAt7QvIyQQgo3BFXBb4FbBtA9P9o96/lfV+SS8Vrmi8L2AG8N60lX0BuZgAZBKuaLzev3/aqriogbkk9bBwRZwAnE6TfQFb2ReQgz0AGYQrMtT7XfwlDULnvaLZvoAr7AvIwR2ABoUrMtX7t7LeL2nhhCsy9QVsZV9AU9wBaEi4Ir4ZmEYzi/8AcDiwj4u/pKHovHfsQ/leMtDAlJ8CpnXeK9UAdwAaEC7PUO/f2i1/SdUIl2foC9javoC6uQNQs3B5/Fearve7+EuqUOc9pdm+gPK9UzVyB6Am4fI4CjgZ+HRDU5b1/q3d8pdUj3B5430B3wIOTlvbF1AHdwBqEC5/sd7fxOL/j3q/i7+kGnXeY5rsC/g0MK3znqqKuQNQsXB53BA4G+v9kvpYhr6APdPWxQ0NzNUaJgAVCjPjvwLfBxZvYLo7gD3TNsXsBuaSpFcIM+OqlL/wrN3AdM8C/5a2Kf67gblawQSgAmFm4/X+p4FvAE1s+T9HmWzcmLYp/tLAfBqmMDOOAJYElnqNx5KUZcAngSfm+fOJl/9/aZvimWafhYYqzIxvBsZQLsqLNjDlUsDngCUamAte6AvYxr6A4TIBGKbOxXYGzZznn9vvgWPTNsWPcwfSdmFmXBZYBVi183jh7ysDRQ1TzgUi8FvgPmB253EfMNvkML8wM34YOBJ4e+5YGjAD2Nefu+ExARiGMDOuRPmD2ES9v5tcBHw0bVM8mDuQfhdmxlWAzYHVeOlCPzpnXPMRKZOBeZOD69M2xZ1Zo2qBMDOuCPwQmJA7lob9Adg6bVP8LncgvcoEYIjCjDgauApYK3csmfwGWC9tWzyVO5B+EmbENSl3k7YFtgFWzBvRsP0FmEmZKM8AbkvbejfKqoQZcUngVuBduWPJ5CZgy7StJaqhMAEYgjAjjgQuBHbOHUtmp6Zti0/kDqJXhRkxAOvw0gV/2axB1e9RXpoQ3JK2LZr4OFlfCjPid4ADc8eR2elp2+L9uYPoRSYAQxBmxPcA5+SOowskYLu0bTEzdyC9orNztBfwHmBr4E15I8ruMeAKyoT6zLRt8dfM8fSMMCNuA0wHQuZQusF707bFGbmD6DWjcgfQo/bIHUCXCMCelL/R6VWEGXFxYFdgP2AisFjeiLrK0pSvza7At8OMOBX4JXBO2rZ4Imtk3W9vXPxfMJayGVsLwQRgIXW2/3fNHUcXGZM7gG4UZsRRlG9K76NMGF+fN6KeMAoY33k8E2bECyiTgYvStsXfs0bWnTbKHUAX2TJ3AL3IEsBCCtPjcsDDuePoIk8ARdrOxq4wPQZgK8rf9PcFlskbUd+IlIfN/AK4NG1XzM0cT3ZhehwFPA68LncsXSIBb0zbFY/lDqSXuAOw8B7NHUCXeT3lR9Ji7kByCdPjaOD/AZ+gHZ/BbloBfLDz+HOYHn8IfCttV/w5Z1CZvQkX/3kFmjmBta+4AzAEYXqMdN/nsHN6Qxsz7zA9rgB8lnLx9+ehWc8ApwEnpe2K3+YOpmlhelweeCh3HF3kj2m7om3nsQybdwMcGg83abEwPa4epscfAQ8Ah+Din8PrKD/+NjtMj78M0+MGuQNSVtflDqAXmQAMzbG5A1DzwvS4WZgezwbuAj5MM+esa8FGAv8M3BSmx8lhetw+d0DK4oLcAfQiSwBDFC6LV2Dn6QvekLbvzxJAuCwGyiNWv0D5uX11v2uBE4Fz0vb9echQuMwSwDwuA3ZM29uIvLDcARi6TwFtbkLqe+GyuCVwA+VvFy7+vWMT4NfA7eGy2PbTOvvdU8CHXfyHxgRgiNL2xU3AhsD1uWNRtcJlccVwWfw55Ql1784dj4ZsTWByuCyeHS6LK+UORpW7F9gpbd++JtCqmAAMQ9q++CPlb4bfozzSVD0sXBYXDZfFQ4B7gP1zx6PK7AHcGS6Lx4TLoh+d633PAacAG6Tti6tyB9PL7AGoSLg0BmBtYAtgPXrnjIV/q2CMN6QdersHIFwaxwP/QXnb3X6RgCfn83hinr8HyrMclprnMe//XoL+Om72d8BBaYfirNyBDEe4tLIegO9XMEYT5lA2314H3JJ28GTIKpgAtFy4NFbxA9CzCUC4NK4MfAPYLXcsQzBAeU/02fN5/BF4Ou0wvNpoJ7FdivKAo1Xmeaza+fNt9OZO4jTg02mH4q7cgQxFVQlA2qHop+ROC6lXfkuVKhUujUsAXwT+nd64Oc+jwOXAlZQlitnA/XX/JtRJIJ4A7ug8XiJcGhcDVqJMBtagPAp5a+CNdcZVgbHALeHS+G3gmLRD8XjugKSmuQPQcm3cAQiXxs0pbzLzjtyxLMAjlHdZnAnMAG4f7m/zTensGqwDbAts03kslzWoBXsI+Ne0QzEtdyCD5Q6AqmAC0HJtSgDCpXEE5ef5j6X7dr/+TLktPQOYkXYo7skcT6XCpXF1/pEQjAPenDeiVxgAvgoclXYo5uQO5rWYAKgKJgAtFy6pKAHYsbsTgHBJXB74GeXWb7d46V3udmzHXe7CJV19q+RZwH5px+IPuQNZkM7P8/ATgB1NANqs234LkioXLonjKBf/ZXPHAjwLXEi56F+YdmxfN3PasZgDTAYmh0vi64BdKZOB8eTvx9gSuDlcEg9IOxbnZo5FqpU7AC3XzzsAnd80vwx8nrwfZZtLub3/S+DstKMNZ/MTLolLA3sB+wHbU57zn9O3gM+nHYvnMsfxCu4AqAomAC3XrwlAuCS+E/gfYNOMYUTgu8C30o6F57YvhHBJfBvlrZY/RvkxxFxuBP457VjMzhjDK5gAqAq9+PldaYHCJXFf4GbyLf4PUTYbvj3tWBzm4r/w0o7FH9KOxcGU5wx8ifJTETmMAW4Il0RPhlTfcQeg5cK0inYAxubfAQjTYgC+DhycKYR7O/P/dxrbfdvGvSxMi4sD/0p5bsOqmcL4LvCpNDZ/s2aYVtEOwFh3ANrMHQD1hTAtLgL8nDyL/7XA3sCaaWzxIxf/6qWxxbNpbPEDysOG9qF8zZv2ceDMTjIi9TwTAPW8MC0uRXnL3vc1PPWtwNg0ttg0jS3OSmP7897z3SSNLQbS2OLXaWyxKbATcHvDIewBTA3T4tINzytVzgRAPS1Mi28GLqM8XKYp/wd8EhiTxhaXNDiv5pHGFtMob9f8GcqGy6ZsBVwepsW3NDinVDkTAPWsMC2uRHk2/kYNTTkA/BBYLY0tvtMNteC2S2OLOWls8S3Kuzj+hPIOiE1YB7gyTItrNDSfVDkTgLZLFT0aFqbGDUhcSWKVyp7Dgh9Xk9g0jS0+lsYWf23siWpQ0tjiz2ls8WESm5G4rqGfibeTmBWmxs0ae6Iv6NHrVt3FBEA9J0yNO1Cemb98A9P9GfgQsEXaqbi+gfk0DGmn4lrKj39+BPhLA1O+EbgkTI0TG5hLqpRHAaunhKnxvZTH+i7awHTfAw5NOxVN1pcrF6bGxSjP21+q85j37wBPdh5PzPv3tFNvHlOcdioS8OMwNf4aOBk4oOYplwDOCVPjR9NOxU9rnkuqjAmAekaYGt8P/Bf171w9Bnw47VScVfM8lQhT41KUn41flbIWvlrn76sASzPE6zxMjXMoX4v7gNmU5xzc2/n77LRT8eSwg69R2ql4DPhwmBqnAt8HRtc43SjgtDA1LpF2Kk6tcR6pMh4E1HLh4ooOAhpX70FA4eL4FuBO6n0TB7gK2C+NK35X8zxDEi6OS1DesGY7YAvKxX7FTOE8SJkQXAlMB2alccXTmWJZoHBxfBflvRg2qXmqvwMbpHHF3XVOEi6u6CCgcR4E1GYmAC3XQwnAOcB7apwiUd4P/sg0rnvuB99Z8LegXPC3BzYGFskZ0wI8D1xH+bHM6cCV3ZQQhIvjIpQ3h/p36r051FXAVmlcfedCmACoCiYALdcLCUC4OG4NzKxrfMpz5v8ljSum1jjHoHXe3P+Z8nTBTWim36EOz1Ge2Pdr4H/SuOLhzPEAEC6OOwP/Tb23h94vjSv+p67BTQBUBXsA1As2rnHsqZSLf66bzQAQLo5LAXsC7wd2JP+tcKuwKOWhOVsBJ4WL4yWUxzWfncbl6x9I44op4eK4PmUSsFNN02xOeTdKqWuZAKgXrFvDmAk4AvhKGldk2QYLF8dRlCcY7k95xOwSOeJoyEjK5zoOeLpT0jkduDhHySWNKx7u7AQcDhxbwxRjahhTqpQJQNv1QgUosUrFIz4PHJB2Ln5e8biDEqbEAjiQ8gjb5XLEkNkSlPdteB/wSJgSvwmcmnZu9uOWncTvuDAl/oHyhMcq3w/rPSGwF65bdT0PAlIvuLfCsZ4Cds+x+IcpcbkwJZ4A/B74Cu1c/F9uOcrX4vdhSjwhTImNvyZp5+KnlDswVTYs/qbCsaRamACoF1xT0Th/BXZIOxeTKxpvUMKU+M4wJX4HeAA4lPo/ytiLRlO+Ng+EKfE7YUp8Z5OTp52LCyl7L/5W0ZA3VjSOVBsTAPWCKysY43fAVmnnorH7yIcpcbUwJf6M8uCcAwHvI//aFqd8rWaHKfFnYUpcramJ087F1ZQNi7+vYDiPjVbXMwFQ10s7F7dTdmwP1e3AFmnn4p6KQlqgMCUuGabErwC3UXb122uz8EZRvna3hSnxK2FKXLKJSdPOxd2U5y7cPoxh7qT8tIPU1UwA2q5X7iqW+DSJPwwhtitIbJ12Lh5sIErC5LgPibtIHEZi0YbuStfPj0U7r+VdYXLcZ+G/Iwsv7Vz8icTWJC4fQrxzSXwo7VzzfRR65bpVVzMBUE9IuxQR+Bfg/xbin/0PsFPapd5TCgHC5LhGmBynAmcAb6t7vhZ6G3BGmBynhsmx3g57oPMzM46F+yx/Ag5PuzRXZpKGwwRAPSPtUswA1gLOfo0vfRjYO+1S7Jd2KZ6tM6YwOS4ZJscTgVuBsXXOJaB8jW8Nk+OJYXK9ZYG0S/Fs2qXYD3gvr31r4fuB7dMuxVfrjEmqkkcBt1yYXNFRwA38lj2vMDlOoOza3gBYh/I435uBm4Cfpl2KhdkpGGoM7wZ+BZWfU6DBuQ94b9qluKnuicLkuAzluQ0bUR7ysyzwR8pu/6uAb6ddiqfqjmOeeKo5CngXjwJuMxOAlguTKkoAxjebAOQWJsUDgVOAxXLH0nJ/Bw5K45u9BW+YFJdM45tb8OczfzUJwHgTgDazO1laCGFSHA38CNg3dywL6TngyXkeT3T+HAksBby+8+cLj165F8FiwHfCpLgd8JE0vni8iUlzLv5SVUwApEEKk+IYyi3/lXPHMh+J8vPrs+fzeCCNX7iu9DApvh54F+VzXaXzeOHvb68u7MrsC4wJk+J70/jCQ3ikQTABkAYhTIqfAE6me7b8E2Xj4fTOY2YaXzxa2eDjiyeAWzqPlwiT4rLA1sC2nce6QDdsJa8MXBkmxYPT+OI7uYORup0JgLQAYVIcCZwKfCx3LJSfbjgTuISKF/yFkcYXfwZ+3XkQJsU3Up6gNw7Yh7z3OFgM+M8wKa4HHJjGF3MzxiJ1NZsAWy5cVFET4IT+awIMF8XFgF8Ce2YMIwJnAb8ALk0TioGMsbymcFEcCWwH7AfsBbwhYzhnA/ulCTUfypNBuKiiJsAJNgG2mQlAy5kAzF+4KBbAuZRb3E2b25n7dODCXl3AwkVxUcpdgfcDe5Nnx3EG8J40odlbDdfNBEBVsAQgvUznzXUysH7DUz8N/AQ4OU0oHmh47sqlCcVzwAXABeGi+HbgIOAjQCPn+ndsC8wIF8Vd0oTi4QbnlbqeJwFK8wgXxVWAWTS7+P8NOBZ4R5pQfKofFv+XSxOK36cJxWcpP0FwBPDnBqdfH5jV+d5K6jABaDtvKvKicGFch8QsEu9q6EY3fyXxWRLvSBOKo9KE4q+NPdlM0oTi0TShOJ7EO0h8ksTfGnqt30ViVrgwrtPYk62T160qYAIgAeHCOIryFq7LNjDdXMpPFqyWJhbfTBPbd6hMmlg8myYW3wFWpXwtmujWXxb4eed7LbWeCYBUOphmtv1nARulicUn0sT671fQ7dLE4v/SxOITwIbAFQ1MuT7w+QbmkbqeCYBaL1wYlwOOqnmah4EPAFunicXNNc/Vc9LE4pY0sdia8hMDw+5ufw1Hhgvjm2ueQ+p6JgBSeYe319U4/rnA2mli8d9pYmHldQHSxOJ0ypMFz69xmsWBjWscX+oJJgBtZzMRJNatqfHsORKfSROLPdLEPKf29aI0sfhbmljsTuIzJP5e8xtO9gAAGsJJREFU0/dmg0afVNW8blUBEwAJ1qxhzPuAzdOuxbdqGLsVOq/d5sC9NQxfx/dc6ikmABL8qeLxfgGMSbt6V7rhSrsWN1E2CP53xUP/ruLxpJ7jx2EkuKaicRLwhbRr8fWKxhOQdi2eBD4QLoh3ASdUNKyNmGo9EwCpmgRgDvCRtGvxXxWMVYsAgYsfWYI5S72egbmvZ2BgKQBGjHiSESOfYNSTTzBuuadTl1aH067FV8MF8WHghwz/veuGCkKSepoJQNt15Vt9s9KuxcPh/Hga8KEhDvE08N60W3FhhWENWZj06FuZM3JTAqsCqzIQViWkVYFlYfERZa4ChM59YFKCuXNg7uJwfhwI8GdSmM2INBuYTWI2o+Zek8a/8Y+ZntKL0q7FT8P58S/Ar4AlhjjMT9JuxW8rDKt5XreqgAmAVPosMBZ420L+u0eB3dJuxZXVhzR44YI4BsJupLQ7jBwD/GORCAu1WowAliek5Uls/eL/O2ck4fx4IyGcB+n8nP0NabfiwnB+3JHyRkNvWsh//jDw79VHJfUebwfccuH8im4HvFvv3w64s6hcCCw2yH/yADAx7VbcWVtQryJMYjGef3x7RqTdGWA3Am9tNIDEHxnB+QyE81hk9GVpPI3fsjicH9cAJgHvHOQ/eYpyp+ai2oJqSDi/otsB7+btgNvMBKDlTABeqrOo/BDYagFfNhf4NnBE2q14spHAgHAGI3nd4/9ESnsD44Clmpr7NTwJXEwIv+aZ0f+b9m3kXH8AwvlxSeA44NPAyAV86SzgA2m34v5GAquZCYCqYALQcuG8ihKA3fsjAQAI58UAHADsCmxA+Rvmc8CdwE3AqWn34vpGYzo37kPgeGD1JucdgntIHJ7eU5zZ5KThvLghZRKwLrAW5S7O74HrgGnAD9LuxUCTMdUpnFdRArC7CUCbmQC0nAnAawvnxQJ4Ju1ePNf43OfGsQROoDyuuJdcT+Kw9J5iWtMTh/PiSGB02r1/b7ZkAqAq2AQovYa0exGbnjOcFzcCTiAwtum5K7IRganhvDgNOKzJHZO0ezEX6NvFX6qKJwFKXSSc98Tq4bx4BuXWda8u/vMaC1wXzotnhPOe6PbyhdQqJgBSFwjTWTyc+9i3YOAOYJ/c8dRgHxi4I5z72LfCdBbPHYwkEwB5V7HswgVPrEGM10D4FImRNd39rhseIyF8ihivCRc8sUaVr2HreN2qAiYAUkbhnMc+yNyB64H1csfSoPWYO3B9OOexD+YORGozEwApgzCdUeGc+GNCOA1YMnc8GSxJCKeFc+KPw3SbkaUcTACkhoWLH1mSx+N5BA7IHUt2gQOIj50TLnhoqOf6SxoiEwCpQeGCJ5bhmcUvJTE+dyzdI0xk7hLTwhmPvzF3JFKbmAC0nc1EjQlnPfpW5gzMIrFJFzTkddtjcxYZuDyc8dTyw3uVW8LrVhUwAZAaECAwYuTPgNVyx9K9wlosMufHuaOQ2sIEQGrCOY99Btgudxg9YEI497EP5Q5CagO7b6WahfP+uiJhkRMybbkOALdA+D2kRwjpYRjxCCk9wsCIhwEYMbA8ISwHA8uRwvIQloP0dmB9cvySkMI3wsWP/CqNW+6pxueWWsQEoO2sA9ZvYNFtSanJ0+/+CmkKjJjEImFK2vX1fx3KIOGCJ5bh+bQzDIyHsDOwTMVxvpqCp5ZYD7iqofl6j9etKmACINVtYGALQu03XXuYkH5IGHEhN4++Lh3FsG9920kcTgdOD8cwgg0e35g0MJEUPgrU26wXBjbABECqlQmAVLuwcY2D/4WUTmTuk6emfd/6DADvqX6SMqEYfQ1wTTjjjycwcqkDCeELwJurnw0YSGvVMq6kF9kEKNUtpL/UMOrfgENZ8tmV0l5Ln/zi4t+AtO9bn0l7LX0ySz67EnBoJ5ZqhfCnyseU9BImAFLdUritwtGeI4UjGfn8SmnP4sScjXJp3HJPpT2LExn5/EqkcCTwXGWDD4RbKxtL0nxZAmg7m4nql8JtFb3Qv4ewT9pr9HVVDFaVtPsyTwDHhbMenwzpTODtwx2SgedvqSC0/uV1qwq4AyDVbbGnzgV+O6wxAhcTRozptsV/Xmmv0dcRRowhcPHwBuJHad83WQKQamYCINUs7brC06Tw8aH+c0jHcWsxPu35+upr7RVLe77+b9xajId0HEP6PTU9xMDA5ysPTNIrmABIDUh7j55CCP+1kP/sMVLYNe219JFVfKyvKekoBtJeSx9JCrsCjy7EP32aESM+nPZ9Q6wrNkn/YAIgNeXW0QcQ+Dzw90F89RTmMibtPfqiusOqS9p79EWMGrUWgV8N4suvJYx4d9pj9KTaA5MEmADIu4o1Jh3FQNqzOIk0sAmJS0g8PZ/X8jek8L60V7FL2rcYXt9AF0i7L/lI2rP4JwZG7MYAU0n8aZ7n+jcSkyB9jjcWW6Y9X39v7nh7htetKuCnAKSGpb3fcCswNkxnFH95bB3CiLUZER5g7pzb+3X7O+3z+guACwDCGf9XsEh4Q9pj6QfyRiW1mwmAlEnajjmw9M3AzbljaVInyenLREfqJZYAJElqIXcA2s46oNR7vG5VAXcApJYKZ8Ylw5lxydxxSMrDHQCpBcKZ8a2U9wmcAKwMrACM7vy3x4GHgPuBi4Bz0z7FHzOFKqkhJgBSHwtnxgnAkcCmC/iy0Z3H6pQJwn+GM+M1wLFpn6JnzyGQtGAmAFIfCmfGMcDJwHZDHGJT4MJwZpwOHJz2KW6sKDRJXcIegLbzQJG+E86IB5C4isR2FXxvtyNxVTgjHtD8M9Gr8rpVBdwBkPpEOCOOoPyt/7MVD70o8ONwRlwXODjtW/TMfQkkvTp3AKT+8XWqX/zn9dnOHJL6gAmA1AfCGfFDwEENTHVQZy5JPc4EQOpx4Yy4AfC9Bqf8XmdOST3MBKDtbCbqfYmvkVi0su/laz8WJfG1pp6e5sPrVhUwAZB6WPhV3BHYKcPUO3XmltSjTACk3nZkS+eWNEwmAFKPCr+KywFbZQxhq04MknqQCYDUu3Yn7zU8ohODpB5kAtB2NhP1rsSEBhv/Xu0xof4nqlfwulUFTACk3rVS7gDojhgkDYEJgNS7VswdAN0Rg6QhMAGQelD437gIsEzuOIBlOrFI6jHeDKjtrAP2pvRiFTdkj8Sfoub5iqsC7gBIPSj9czEH+EvuOIC/dGKR1GNMAKTe9VDuAOiOGCQNgQmA1Lvuzx0A3RGDpCEwAWg7P0/cuxIXdsE5ABfW/0T1Cl63qoAJgNS7zgfmZpx/bicGST3IBEDqUWm/4q/AjIwhzOjEIKkHmQBIve3Yls4taZhMAKQelvYrZgAXZZj6os7cknqUCUDb2UzU+xJfIPFsg41/z5L4QlNPT/PhdasKmABIPS69r7gdOKDBKQ/ozCmph5kASH0gva/4Jc3U5I/tzCWpx3kvAKl/HA0MAEdR/T0CEnAMNv5JfcMEQOoT6X1FAo4Jv4h3AP8FLFHR0E8DH0jvK86saDxJXcASQNvZTNR30vuKM0mMIXFOBd/bc0iMcfHvMl63qoAJgNSH0v7FPWn/Yk9gK2AKsDB37JvT+Tdbpf2LPdP+xT11xCgpL0sAUh9L+xezgF3C6XFpYCIwAVgZWAFYvvNlD1Pe1e9+yjMFLkz7F49lCFdSg0wApBboLOindx4AhNNj6Pw3N4OlFjIBkFrKhV9qNxOAtnMJkHqP160qYBOgJEktZAIgSVILmQBIktRC9gC0nbVEqfd43aoC7gBIktRCJgCSJLWQCYAkSS1kAiBJUgvZBNh2NhNJvcfrVhVwB0CSpBYyAZAkqYVMACRJaiETAEmSWsgmwLazmUjqPV63qoA7AJIktZAJgCRJLWQCIElSC9kD0HbWEqXe43WrCrgDIElSC5kASJLUQiYAkiS1kAmAJEktZBNg29lMJPUer1tVwB0ASZJayARAkqQWMgGQJKmFTAAkSWohmwDbzmYiqfd43aoC7gBIktRCJgCSJLWQCYAkSS1kD0DbWUuUeo/XrSrgDoAkSS1kAiBJUguZAEiS1EImAJIktZBNgG1nM5HUe7xuVQF3ACRJaiETAEmSWsgEQJKkFjIBkCSphWwCbDubiaTe43WrCrgDIElSC5kASJLUQiYAkiS1kD0AbWctUeo9XreqgDsAkiS1kAmAJEktZAlAVbgg/CDOyR2E1CKL5g5Avc8EQFXYMncAkqSFYwLQdjYTSVIr2QMgSVILmQBIktRCJgCSJLWQPQBtZw+AJLWSOwCSJLWQCYDcA5DayWu/5UwANDt3AJKy8NpvORMAXZc7AElZeO23nE2AbZe4Dtg/dxiSGmcC0HLuAOgM4LHcQUhq1GOU175azASg5dLHiweBz+aOQ1KjPtu59tViISUbQQXhu/FcYPfccUiq3Xnp48V7cgeh/NwB0Av2Br4EPJc7EEm1eI7yGt87dyDqDu4A6CXCqXEd4GhgM+AteaORVIE/AVcDR6cDi9tzB6PuYQKgVxVOjSsA6wOL545FQ/IvwF7DHOMs4GcVxKLmPQvckg4sHsodiLqTHwPUq+q8cfjm0aPCqXGzCoaZnQ4szqlgHEldxh4ASZJayB0AqV9Z3ZO0AO4ASJLUQiYAkiS1kAmAJEktZAIgSVIL2QQo9SubACUtgDsAkiS1kAmAJEktZAIgSVILmQBIktRCNgFK/comQEkL4A6AJEktZAIgSVILmQBIktRC9gBI/coeAEkL4A6AJEktZAIgSVILmQBIktRCJgCSJLWQTYBSv7IJUNICuAMgSVILmQBIktRCJgCSJLWQCYAkSS1kE6DUr2wClLQA7gBIktRCJgCSJLWQCYAkSS1kAiBJUgvZBCj1K5sAJS2AOwCSJLWQCYAkSS1kAiBJUgvZAyD1K3sAJC2AOwCSJLWQCYAkSS1kAiBJUguZAEiS1EI2AUr9yiZASQvgDoAkSS1kAiBJUguZAEiS1EImAJIktZBNgFK/sglQ0gK4AyBJUguZAEiS1EImAJIktZA9AFK/sgdA0gK4AyBJUguZAEiS1EImAJIktZAJgCRJLWQToNSvbAKUtADuAEiS1EImAJIktZAJgCRJLWQPgNSv7AGQtADuAEiS1EImAJIktZAJgCRJLWQCIElSC9kEKPUrmwAlLYA7AJIktZAJgCRJLWQCIElSC5kASJLUQjYBSv3KJkBJC+AOgCRJLWQCIElSC5kASJLUQvYASP3KHgBJC+AOgCRJLWQCIElSC5kASJLUQiYAkiS1kE2AUr+yCVDSArgDIElSC5kASJLUQiYAkiS1kAmAJEktZBOg1K9sApS0AO4ASJLUQiYAkiS1kCUAqc+E4+MiwJbAphUMt2k4Pm4HzEqHF89XMJ6kLhFSslAo9bpwXHwLML7zGAuMrniKx4FpwCRgUjqi+FPF40tqmAmA1KPCcXEx4P3AJ4B3Nzz9TcB3gJ+nI4q/Nzy3pAqYAEg9JhwX3wR8HPgksFzmcB4B/hP4bjqi+FvmWCQtBBMAqUeE4+I7gc8DHwSWyBrMKz0N/BT4ejqieCBvKJIGwwRA6nLhuDgSOAg4Bnhd5nBeyzPAUcAp6Yhibu5gJL06EwCpi4Vj4xjgRzRf4x+um4CPpCOLG3MHImn+TACkLhSOjUtQ/sb/OWBk5nCGai7wDeCodGTxdO5gJL2UCYDUZcKxcSXgQmDN3LFU5C5gYjqy+G3uQCT9gycBSl0kHBs3Aa6mfxZ/KJ/L1Z3nJqlLmABIXSIcG/cEpgPLZg6lDssC0zvPUVIXsAQgdYFwTPwccBL9n5QPAP+ejiq+kTsQqe36/c1G6nrhmPhF4BTacT2OAE7pPGdJGbkDIGUUjon7AacDIXcsDUvA/umo4pe5A5HaygRAyiQcE7cGpgKL5Y4lk78DO6WjistzByK1kQmAlEE4Oq4GXAW8MXcsmT0KbJ6OLu7NHYjUNiYAUsPC0fFNwDXAyplCeBx4sPMAWLHzqPoWwoN1P7BpOtqbCUlNGpU7AKmFvkVzi/9fKQ8VOh+4DXgwHV08Ob8vDEfHpSgTgXWB3YCJwDINxLgy5WuyfwNzSepwB0BqUDg6jgcuqnmav1Leme884Mp09NBuyhOOjiOBLYDdKe9AWHcyMCEdXUyqeQ5JHSYAUkPC0XFJ4A7gHTVN8QzwH8BX09HF41UOHI6Oo4FDgc9S3x0JfwesnY4unqppfEnzaMPnjqXukDiexDtIUPFjgMRpJFZNRxdfrHrxB0hHF4+no4svkli1M9dADc/jHSSOrzp2SfPnDoDUgHBU3ISy67/qpPsvwN7pmGY/SheOilsDvwbeXPHQA8Dm6Zji2orHlfQy7gBIzTiB6q+324BNml78ATpzbtKJoUojKF8rSTVzB0CqWTgqbgDcVPGw5wLvT8fMv6O/KeGouBTwc+A9FQ/97nRMcXPFY0qahzsAUv0Orni8XwB75l78ATox7EkZU5Wqfs0kvYw7AFKNwpHxrcBvgEUqGvJaYNt0bPFsReNVIhwZFwdmUJYFqvA88K50bPHHisaT9DLuAEj1+jTVLf5/AvbotsUfoBPTHpQxVmERytdOUk3cAZBqEo6MS1Aet1tUMNwzwDbp2OL6CsaqTTgybgTMpJqzAiKwYjq2eLqCsSS9jDsAUn3GUs3iD3BCty/+AJ0Yq+riLyhfQ0k1MAGQ6jO+onEeAk6paKwmnEIZcxWqeg0lvYwJgFSXxPiKTsg7Kh3bO8fjpmOLp0gcVdFzNwGQamICINUgHBHXopoz/+8CflLBOE37CWXsw/WOzmspqWImAFI9JlQ0zlfScUO7m19OnZi/UtFwVb2WkuYxakH/MRwRl6C8N3hdd/+S+tXeFYwxB7iggnFyuYDyOSzwfWYQ9g5HxK5vgJS6zDPAbem4V/8UzSs+BhgOj28HvgRsDqwFjKwzQkmv6tJ0fLFj7iCGIxweLwF2yB2H1FJzgTspb0T25XR88ft5/+NLSgDh8PhRypt7fIzyN38Xfymfc3MHUIF+eA5SrxpJuZZ/DLits8a/6MUEIBwefwT8ABjdaHiSXs35uQOoQD88B6kfjAZ+0FnrgU4JIBwe9wTOyheXpJd5KB1frJg7iCqEw+ODwAq545D0or3S8cXZI8LhcRnge7mjkfQSVZ2p3w366blI/eB74fC4zCgS7wWWzR2NpJd4MHcAlUl99Fyk/rAs8N4RwIa5I5H0Cv30W3M/PRepX2xoAiB1p376rbmfnovULzYcASyfOwpJr/BE7gAq1E/PReoXy48Abs0dhaRX6Keu+X56LlK/uHUUiRuAnXJHIukl+uIjgACkPnouUv+4YQRwee4oJL1CPy2a/fRcpH5x+Yj0leIiPK1L6jZvyR1AhfrpuUj94Pz0leKiF44C/hjwt5zRSHqJt4UvxuHeRS+7znN4W+44JL3ob5RrfnmbzvSV4uFwWNwXOB0bdqRusCSwLXBJ7kCGJbEt5XORlN9DwP7phOJhmOdmQOmE4jJgbeAXmQKT9FK75w6gAv3wHKR+8Atg7c5aD3RuBvRy4bC4AbAp5SFB6wKvaypCqU+sCiwxzDEeSCcUK1URTC7hsPhb4J3DHOZpYPbwo5Fa5RngNuAG4Jp0QnHzy79gvgmApOEJh8Xv06mzDdN66YTitgrGaVw4LK5LNeeMnJZOKA6oYBxJ8xjx2l8iaaElziFBBY8PNB57VRIfqOg1mNx47FILmABI9bgUeLKCcT4ZDo1vr2CcRnVi/mQFQ80FplUwjqSXMQGQapC+WvwdmFTBUIsBx1cwTtOOp4x9uK5LXy0erWAcSS9jAiDV59yKxnl/ODRuUNFYtevE+v6KhnP7X6qJCYBUnwuBORWME4BTwqGx66/XToynUMZcBRMAqSZd/4Yi9ar01eIxEjMqaoTbnsSXG38SCyvx5U6sVTznO0lc2/hzkFrCBECq1zkVjnVo+ELcv8LxKtWJ7dAKhzwlnVj4OWWpJiYAUr1+ATxW4Xg/Cl+Im1Y4XiU6Mf2owiEfAX5e4XiSXsYEQKpROrF4FDihwiEXB84JX4jrVTjmsHRiOYcytqp8J51Y/L3C8SS9jAmAVL9vAX+ocLzlgVnhC3GPCscckk4MsyhjqsozwKkVjidpPkwApJqlE4tnSRxeUWPcC4+lSJwVDolfavjpvCgcEr9E4qxOLFU+tx+lEwtvTy7VzHsBSA0Ih8QRwI3A+jUMfwbwmfS14qEaxn6FcEhcAfgmsG8Nwz8MrJm+VlTZNyFpPkwApIaEQ+LO1Pe59qcoP3//tfS1ooojiF8hHBKXAg4BDgKWrGMOYN/0teLMmsaWNA8TAKlB4ZA4FRhb4xR/Bo4Bfpy+Vk0TXTgkLgZ8GDgKWLaKMV/FuelrRfa+BqktTACkBoVD4rrANcDrap7qScp7EZwLXLiwW+rhkLg0MBF4DzAeWKryCF/qcWCt9LXiTzXPI6nDBEBqWPh83Bf4X6o7Lve1PA/MBG4DHqKssz/UeQCs0Hks3/lzXWAbYJGG4gP4f+nrxfcbnE9qPRMAKYPw+Xgk5Va94LT09eKA3EFIbePHAKUM0teLY4H/yR1HF5gG/FvuIKQ2MgGQ8vkQtPpmN3cA+6SvF8/nDkRqI0sAUkbh3+PywHXAW3PH0rCHgU3TScXvcwcitZU7AFJG6aTiYWA3yi74tvgbMNHFX8rLBEDKLJ1U3AxsCtybO5YG3Adsnk4qbswdiNR2JgBSF0gnFXcDm1B+dr9fzQI2SycVs3MHIskEQOoa6aQiArsCX80dSw3+F9gxneRNfqRuYROg1IXCwfGfgJ8AS+SOZZjmAF8GjkknF77ZSF3EBEDqUuHguAFwNvDOzKEM1fXAR9LJxS25A5H0SpYApC6VTi5uBtYGDgN66fa4TwMHA5u5+Evdyx0AqQeEg+MbgEOBT1H/jYSGYxJwYDq5eCB3IJIWzARA6iHh4PgWytvyfggYlTmcF8wBzgROSScX1+UORtLgmABIPSgcFFejvJnQHsDimcJ4HPgR8M10iof6SL3GBEDqYeGguASwE7A75UcIl615ymeA6cCFwM/SKUWbTjCU+ooJgNQnwkFxBOWJgrt3HmtVNPTdwOTOY0Y6pXi2onElZWQCIPWpcFB8O/AuYMXOY4V5/v7C43ngwQU8HkinFA82Hryk2v1/uCrf32ZpJ/IAAAAASUVORK5CYII=;shadow=0;glass=0;dashed=1;dashPattern=12 12;sketch=1;" parent="12" vertex="1">
                    <mxGeometry x="50.63333333333334" y="14.46666666666667" width="43.400000000000006" height="43.400000000000006" as="geometry"/>
                </mxCell>
                <mxCell id="4" value="Home network with changing IP" style="text;html=1;strokeColor=none;fillColor=none;align=center;verticalAlign=middle;whiteSpace=wrap;rounded=0;shadow=0;glass=0;dashed=1;dashPattern=12 12;sketch=1;" parent="12" vertex="1">
                    <mxGeometry x="135.02222222222224" y="20.666666666666668" width="135.02222222222224" height="31" as="geometry"/>
                </mxCell>
                <mxCell id="6" value="" style="verticalLabelPosition=bottom;html=1;verticalAlign=top;align=center;strokeColor=none;fillColor=#00BEF2;shape=mxgraph.azure.computer;pointerEvents=1;shadow=0;glass=0;dashed=1;dashPattern=12 12;" parent="12" vertex="1">
                    <mxGeometry x="50.63" y="134.33" width="109.37" height="124" as="geometry"/>
                </mxCell>
                <mxCell id="9" value="" style="shape=image;verticalLabelPosition=bottom;verticalAlign=top;imageAspect=0;image=https://seeklogo.com/images/J/jenkins-logo-07C99BD83D-seeklogo.com.png;shadow=0;glass=0;dashed=1;dashPattern=12 12;sketch=0;" parent="12" vertex="1">
                    <mxGeometry x="67.05" y="160.17" width="72.95" height="72.33" as="geometry"/>
                </mxCell>
                <mxCell id="24" value="Jenkinsfile" style="text;html=1;strokeColor=#b85450;fillColor=#f8cecc;align=center;verticalAlign=middle;whiteSpace=wrap;rounded=0;shadow=0;glass=0;dashed=1;dashPattern=12 12;labelBackgroundColor=none;fillStyle=solid;fontFamily=Tahoma;opacity=80;gradientColor=#ea6b66;sketch=1;curveFitting=1;jiggle=2;" parent="12" vertex="1">
                    <mxGeometry x="200" y="115" width="60" height="30" as="geometry"/>
                </mxCell>
                <mxCell id="25" value="feature-Jenkinsfile" style="text;html=1;strokeColor=#b85450;fillColor=#f8cecc;align=center;verticalAlign=middle;whiteSpace=wrap;rounded=0;shadow=0;glass=0;dashed=1;dashPattern=12 12;labelBackgroundColor=none;fillStyle=solid;fontFamily=Tahoma;opacity=80;gradientColor=#ea6b66;sketch=1;curveFitting=1;jiggle=2;" parent="12" vertex="1">
                    <mxGeometry x="164.52999999999997" y="193" width="60" height="30" as="geometry"/>
                </mxCell>
                <mxCell id="26" value="master-Jenkinsfile" style="text;html=1;strokeColor=#b85450;fillColor=#f8cecc;align=center;verticalAlign=middle;whiteSpace=wrap;rounded=0;shadow=0;glass=0;dashed=1;dashPattern=12 12;labelBackgroundColor=none;fillStyle=solid;fontFamily=Tahoma;opacity=80;gradientColor=#ea6b66;sketch=1;curveFitting=1;jiggle=2;" parent="12" vertex="1">
                    <mxGeometry x="232.53" y="194" width="60" height="30" as="geometry"/>
                </mxCell>
                <mxCell id="27" value="" style="shape=flexArrow;endArrow=classic;html=1;fillColor=#ffcd28;strokeColor=#d79b00;sketch=1;curveFitting=1;jiggle=2;shadow=1;rounded=1;width=9;endSize=4.72;gradientColor=#ffa500;fillStyle=cross-hatch;entryX=0.5;entryY=0;entryDx=0;entryDy=0;exitX=0.75;exitY=1;exitDx=0;exitDy=0;endWidth=12;" parent="12" source="24" target="26" edge="1">
                    <mxGeometry width="50" height="50" relative="1" as="geometry">
                        <mxPoint x="410.00118999596623" y="-26.53000000000003" as="sourcePoint"/>
                        <mxPoint x="510" y="71.07" as="targetPoint"/>
                    </mxGeometry>
                </mxCell>
                <mxCell id="28" value="" style="shape=flexArrow;endArrow=classic;html=1;fillColor=#ffcd28;strokeColor=#d79b00;sketch=1;curveFitting=1;jiggle=2;shadow=1;rounded=1;width=9;endSize=4.72;gradientColor=#ffa500;fillStyle=cross-hatch;entryX=0.5;entryY=0;entryDx=0;entryDy=0;exitX=0.4;exitY=1.067;exitDx=0;exitDy=0;endWidth=12;exitPerimeter=0;" parent="12" source="24" target="25" edge="1">
                    <mxGeometry width="50" height="50" relative="1" as="geometry">
                        <mxPoint x="255" y="120" as="sourcePoint"/>
                        <mxPoint x="272.53" y="165" as="targetPoint"/>
                    </mxGeometry>
                </mxCell>
                <mxCell id="10" value="&lt;p style=&quot;line-height: 0%;&quot;&gt;Developer&lt;/p&gt;" style="verticalLabelPosition=middle;html=1;verticalAlign=middle;align=center;strokeColor=none;fillColor=#00BEF2;shape=mxgraph.azure.computer;pointerEvents=1;shadow=0;glass=0;dashed=1;dashPattern=12 12;labelPosition=center;" parent="1" vertex="1">
                    <mxGeometry x="115" y="70" width="110" height="120" as="geometry"/>
                </mxCell>
                <mxCell id="13" value="" style="dashed=0;outlineConnect=0;html=1;align=center;labelPosition=center;verticalLabelPosition=bottom;verticalAlign=top;shape=mxgraph.webicons.github;gradientColor=#DFDEDE;shadow=0;glass=0;dashPattern=12 12;sketch=0;" parent="1" vertex="1">
                    <mxGeometry x="100" y="280" width="102.4" height="102.4" as="geometry"/>
                </mxCell>
                <mxCell id="14" value="" style="shape=flexArrow;endArrow=classic;html=1;exitX=0.5;exitY=1;exitDx=0;exitDy=0;exitPerimeter=0;fillColor=#d80073;strokeColor=#A50040;sketch=1;curveFitting=1;jiggle=2;shadow=1;rounded=1;width=9;endSize=5.09;" parent="1" source="10" target="13" edge="1">
                    <mxGeometry width="50" height="50" relative="1" as="geometry">
                        <mxPoint x="460" y="250" as="sourcePoint"/>
                        <mxPoint x="330" y="210" as="targetPoint"/>
                    </mxGeometry>
                </mxCell>
                <mxCell id="15" value="Amazon SQS" style="sketch=0;outlineConnect=0;fontColor=#232F3E;gradientColor=none;strokeColor=#ffffff;fillColor=#232F3E;dashed=0;verticalLabelPosition=middle;verticalAlign=bottom;align=center;html=1;whiteSpace=wrap;fontSize=10;fontStyle=1;spacing=3;shape=mxgraph.aws4.productIcon;prIcon=mxgraph.aws4.sqs;shadow=0;glass=0;dashPattern=12 12;" parent="1" vertex="1">
                    <mxGeometry x="60" y="523.9300000000001" width="80" height="100" as="geometry"/>
                </mxCell>
                <mxCell id="17" value="" style="shape=flexArrow;endArrow=classic;html=1;fillColor=#d80073;strokeColor=#A50040;sketch=1;curveFitting=1;jiggle=2;shadow=1;rounded=1;width=9;endSize=5.09;" parent="1" source="18" target="15" edge="1">
                    <mxGeometry width="50" height="50" relative="1" as="geometry">
                        <mxPoint x="420" y="300" as="sourcePoint"/>
                        <mxPoint x="350" y="197.19400803799783" as="targetPoint"/>
                    </mxGeometry>
                </mxCell>
                <mxCell id="18" value="" style="shape=image;verticalLabelPosition=bottom;verticalAlign=top;imageAspect=0;image=https://seeklogo.com/images/G/github-actions-logo-031704BDC6-seeklogo.com.png;shadow=0;glass=0;dashed=1;dashPattern=12 12;sketch=0;" parent="1" vertex="1">
                    <mxGeometry x="121.19999999999999" y="380" width="60" height="60" as="geometry"/>
                </mxCell>
                <mxCell id="20" value="SQS listner job triggers build" style="shape=flexArrow;endArrow=classic;html=1;fillColor=#d80073;strokeColor=#A50040;sketch=1;curveFitting=1;jiggle=2;shadow=1;rounded=1;width=12;endSize=5.75;entryX=0;entryY=0.5;entryDx=0;entryDy=0;labelBackgroundColor=none;" parent="1" source="15" target="9" edge="1">
                    <mxGeometry width="50" height="50" relative="1" as="geometry">
                        <mxPoint x="406" y="310" as="sourcePoint"/>
                        <mxPoint x="310" y="550" as="targetPoint"/>
                    </mxGeometry>
                </mxCell>
                <mxCell id="21" value="" style="shape=flexArrow;endArrow=classic;html=1;fillColor=#d80073;strokeColor=#A50040;sketch=1;curveFitting=1;jiggle=2;shadow=1;rounded=1;width=9;endSize=5.09;entryX=0.25;entryY=0;entryDx=0;entryDy=0;" parent="1" source="13" target="9" edge="1">
                    <mxGeometry width="50" height="50" relative="1" as="geometry">
                        <mxPoint x="290" y="260" as="sourcePoint"/>
                        <mxPoint x="432" y="420" as="targetPoint"/>
                    </mxGeometry>
                </mxCell>
                <mxCell id="33" value="EC2 instance" style="points=[[0,0],[0.25,0],[0.5,0],[0.75,0],[1,0],[1,0.25],[1,0.5],[1,0.75],[1,1],[0.75,1],[0.5,1],[0.25,1],[0,1],[0,0.75],[0,0.5],[0,0.25]];outlineConnect=0;gradientColor=none;html=1;whiteSpace=wrap;fontSize=12;fontStyle=0;container=1;pointerEvents=0;collapsible=0;recursiveResize=0;shape=mxgraph.aws4.group;grIcon=mxgraph.aws4.group_ec2_instance_contents;strokeColor=#D86613;fillColor=none;verticalAlign=top;align=left;spacingLeft=30;fontColor=#D86613;dashed=0;shadow=0;glass=0;dashPattern=12 12;labelBackgroundColor=none;sketch=0;fillStyle=solid;fontFamily=Tahoma;" parent="1" vertex="1">
                    <mxGeometry x="650" y="495.97" width="130" height="120" as="geometry"/>
                </mxCell>
                <mxCell id="32" value="" style="shape=image;verticalLabelPosition=bottom;verticalAlign=top;imageAspect=0;image=https://cdn-icons-png.flaticon.com/512/6587/6587393.png;shadow=0;glass=0;dashed=1;dashPattern=12 12;labelBackgroundColor=none;sketch=0;fillStyle=solid;fontFamily=Tahoma;fontColor=#0d0c0c;fillColor=#66FF66;html=1;imageBackground=none;" parent="33" vertex="1">
                    <mxGeometry x="71" y="48.36" width="49" height="50.73" as="geometry"/>
                </mxCell>
                <mxCell id="51" value="Backend&lt;br&gt;&lt;br&gt;Frontend" style="text;strokeColor=none;align=center;fillColor=none;html=1;verticalAlign=middle;whiteSpace=wrap;rounded=0;sketch=1;fillStyle=auto;opacity=30;" vertex="1" parent="33">
                    <mxGeometry y="46" width="80" height="50" as="geometry"/>
                </mxCell>
                <mxCell id="35" value="" style="group;strokeColor=none;" parent="1" vertex="1" connectable="0">
                    <mxGeometry x="320" y="190" width="190" height="180" as="geometry"/>
                </mxCell>
                <mxCell id="29" value="&lt;h1 style=&quot;line-height: 70%;&quot;&gt;Pipeline&lt;/h1&gt;&lt;p style=&quot;line-height: 70%;&quot;&gt;- Init&lt;/p&gt;&lt;p style=&quot;line-height: 10%;&quot;&gt;&lt;span style=&quot;white-space: pre;&quot;&gt;&#9;&lt;/span&gt;- env&lt;br&gt;&lt;/p&gt;&lt;p style=&quot;line-height: 10%;&quot;&gt;&lt;span style=&quot;white-space: pre;&quot;&gt;&#9;&lt;/span&gt;- (prod) version&lt;br&gt;&lt;/p&gt;&lt;p style=&quot;line-height: 10%;&quot;&gt;&lt;span style=&quot;white-space: pre;&quot;&gt;&#9;&lt;/span&gt;- (dev) start ec2&lt;/p&gt;&lt;p style=&quot;line-height: 70%;&quot;&gt;- test&lt;/p&gt;&lt;p style=&quot;line-height: 70%;&quot;&gt;- build&lt;/p&gt;&lt;p style=&quot;line-height: 70%;&quot;&gt;- repository&lt;/p&gt;&lt;p style=&quot;line-height: 70%;&quot;&gt;- deploy&lt;/p&gt;" style="text;html=1;strokeColor=none;fillColor=#66FF66;spacing=5;spacingTop=-20;whiteSpace=wrap;overflow=hidden;rounded=1;shadow=0;glass=0;dashed=1;dashPattern=12 12;labelBackgroundColor=none;sketch=1;fillStyle=zigzag;fontFamily=Tahoma;opacity=40;gradientColor=#97d077;" parent="35" vertex="1">
                    <mxGeometry width="190" height="180" as="geometry"/>
                </mxCell>
                <mxCell id="30" value="" style="aspect=fixed;html=1;points=[];align=center;image;fontSize=12;image=img/lib/mscae/Docker.svg;shadow=0;glass=0;dashed=1;dashPattern=12 12;labelBackgroundColor=none;fillStyle=solid;fontFamily=Tahoma;fontColor=#0d0c0c;fillColor=#66FF66;imageBackground=#FFFFFF;" parent="35" vertex="1">
                    <mxGeometry x="126.72000000000003" y="110.00086956521739" width="40.85217391304348" height="33.495652173913044" as="geometry"/>
                </mxCell>
                <mxCell id="37" value="" style="shape=flexArrow;endArrow=classic;html=1;fillColor=#d80073;strokeColor=#A50040;sketch=1;curveFitting=1;jiggle=2;shadow=1;rounded=1;width=9;endSize=5.09;exitX=0.98;exitY=0.02;exitDx=0;exitDy=0;exitPerimeter=0;entryX=0;entryY=0.75;entryDx=0;entryDy=0;" parent="1" source="6" target="31" edge="1">
                    <mxGeometry width="50" height="50" relative="1" as="geometry">
                        <mxPoint x="204.92632548018582" y="392.4000000000001" as="sourcePoint"/>
                        <mxPoint x="590" y="400" as="targetPoint"/>
                    </mxGeometry>
                </mxCell>
                <mxCell id="38" value="" style="sketch=0;points=[[0,0,0],[0.25,0,0],[0.5,0,0],[0.75,0,0],[1,0,0],[0,1,0],[0.25,1,0],[0.5,1,0],[0.75,1,0],[1,1,0],[0,0.25,0],[0,0.5,0],[0,0.75,0],[1,0.25,0],[1,0.5,0],[1,0.75,0]];outlineConnect=0;fontColor=#232F3E;gradientColor=#945DF2;gradientDirection=north;fillColor=#5A30B5;strokeColor=#ffffff;dashed=0;verticalLabelPosition=bottom;verticalAlign=top;align=center;html=1;fontSize=12;fontStyle=0;aspect=fixed;shape=mxgraph.aws4.resourceIcon;resIcon=mxgraph.aws4.route_53;shadow=0;glass=0;dashPattern=12 12;labelBackgroundColor=none;fillStyle=solid;fontFamily=Tahoma;" parent="1" vertex="1">
                    <mxGeometry x="860" y="537.97" width="78" height="78" as="geometry"/>
                </mxCell>
                <mxCell id="39" value="" style="outlineConnect=0;dashed=0;verticalLabelPosition=bottom;verticalAlign=top;align=center;html=1;shape=mxgraph.aws3.mobile_client;fillColor=#D2D3D3;gradientColor=none;shadow=0;glass=0;dashPattern=12 12;labelBackgroundColor=none;sketch=0;fillStyle=solid;fontFamily=Tahoma;fontColor=#0d0c0c;" parent="1" vertex="1">
                    <mxGeometry x="1033" y="570" width="40.5" height="63" as="geometry"/>
                </mxCell>
                <mxCell id="40" value="" style="outlineConnect=0;dashed=0;verticalLabelPosition=bottom;verticalAlign=top;align=center;html=1;shape=mxgraph.aws3.management_console;fillColor=#D2D3D3;gradientColor=none;shadow=0;glass=0;dashPattern=12 12;labelBackgroundColor=none;sketch=0;fillStyle=solid;fontFamily=Tahoma;fontColor=#0d0c0c;" parent="1" vertex="1">
                    <mxGeometry x="1021.75" y="460.93" width="63" height="63" as="geometry"/>
                </mxCell>
                <mxCell id="41" value="" style="shape=flexArrow;endArrow=classic;html=1;fillColor=#dae8fc;strokeColor=#6c8ebf;sketch=1;curveFitting=1;jiggle=2;shadow=1;rounded=1;width=9;endSize=5.09;exitX=0;exitY=0.5;exitDx=0;exitDy=0;exitPerimeter=0;gradientColor=#7ea6e0;fillStyle=cross-hatch;entryX=1;entryY=0.5;entryDx=0;entryDy=0;" parent="1" source="38" target="33" edge="1">
                    <mxGeometry width="50" height="50" relative="1" as="geometry">
                        <mxPoint x="730" y="759.9999999999999" as="sourcePoint"/>
                        <mxPoint x="730.4100000000001" y="605.8022907248398" as="targetPoint"/>
                    </mxGeometry>
                </mxCell>
                <mxCell id="42" value="" style="shape=flexArrow;endArrow=classic;html=1;fillColor=#dae8fc;strokeColor=#6c8ebf;sketch=1;curveFitting=1;jiggle=2;shadow=1;rounded=1;width=9;endSize=5.09;exitX=0;exitY=0.5;exitDx=0;exitDy=0;exitPerimeter=0;gradientColor=#7ea6e0;fillStyle=cross-hatch;entryX=1;entryY=0.25;entryDx=0;entryDy=0;entryPerimeter=0;" parent="1" target="38" edge="1">
                    <mxGeometry width="50" height="50" relative="1" as="geometry">
                        <mxPoint x="1021.75" y="495.1" as="sourcePoint"/>
                        <mxPoint x="892.1599999999999" y="523.9322907248398" as="targetPoint"/>
                    </mxGeometry>
                </mxCell>
                <mxCell id="43" value="" style="shape=flexArrow;endArrow=classic;html=1;fillColor=#dae8fc;strokeColor=#6c8ebf;sketch=1;curveFitting=1;jiggle=2;shadow=1;rounded=1;width=9;endSize=5.09;exitX=0;exitY=0.5;exitDx=0;exitDy=0;exitPerimeter=0;gradientColor=#7ea6e0;fillStyle=cross-hatch;entryX=1;entryY=0.75;entryDx=0;entryDy=0;entryPerimeter=0;" parent="1" source="39" target="38" edge="1">
                    <mxGeometry width="50" height="50" relative="1" as="geometry">
                        <mxPoint x="999.59" y="633" as="sourcePoint"/>
                        <mxPoint x="869.9999999999999" y="661.8322907248398" as="targetPoint"/>
                    </mxGeometry>
                </mxCell>
                <mxCell id="31" value="" style="shape=image;verticalLabelPosition=bottom;verticalAlign=top;imageAspect=0;image=https://cdn.prod.website-files.com/65264f6bf54e751c3a776db1/66ed55a89d83ced32b398f65_6160c8171ad47563a5a862ae_github_packages.png;shadow=0;glass=0;dashed=1;dashPattern=12 12;labelBackgroundColor=none;sketch=0;fillStyle=solid;fontFamily=Tahoma;fontColor=#0d0c0c;fillColor=#66FF66;html=1;" parent="1" vertex="1">
                    <mxGeometry x="610" y="370" width="80" height="80" as="geometry"/>
                </mxCell>
                <mxCell id="49" value="" style="shape=flexArrow;endArrow=classic;html=1;fillColor=#d80073;strokeColor=#A50040;sketch=1;curveFitting=1;jiggle=2;shadow=1;rounded=1;width=9;endSize=5.09;exitX=0.613;exitY=1.013;exitDx=0;exitDy=0;exitPerimeter=0;entryX=0.25;entryY=0;entryDx=0;entryDy=0;" edge="1" parent="1" source="31" target="33">
                    <mxGeometry width="50" height="50" relative="1" as="geometry">
                        <mxPoint x="437.8126000000002" y="556.81" as="sourcePoint"/>
                        <mxPoint x="620" y="390" as="targetPoint"/>
                    </mxGeometry>
                </mxCell>
                <mxCell id="57" value="" style="group" vertex="1" connectable="0" parent="1">
                    <mxGeometry x="790" y="315" width="210" height="110" as="geometry"/>
                </mxCell>
                <mxCell id="44" value="" style="rounded=1;whiteSpace=wrap;html=1;strokeColor=none;opacity=40;verticalAlign=top;fillColor=#d80073;fontColor=#ffffff;sketch=1;curveFitting=1;jiggle=2;fillStyle=zigzag;" vertex="1" parent="57">
                    <mxGeometry width="210" height="110" as="geometry"/>
                </mxCell>
                <mxCell id="45" value="Script" style="html=1;strokeColor=#001DBC;fillColor=default;labelPosition=center;verticalLabelPosition=middle;verticalAlign=top;align=center;fontSize=12;outlineConnect=0;spacingTop=-6;fontColor=#ffffff;sketch=0;shape=mxgraph.sitemap.script;rounded=1;fillStyle=zigzag;opacity=40;gradientColor=default;gradientDirection=radial;" vertex="1" parent="57">
                    <mxGeometry x="140" y="40" width="55" height="50" as="geometry"/>
                </mxCell>
                <mxCell id="34" value="" style="verticalLabelPosition=bottom;verticalAlign=top;html=1;shadow=0;dashed=0;strokeWidth=1;shape=mxgraph.android.switch_on;fillColor=#E6E6E6;sketch=0;glass=0;dashPattern=12 12;labelBackgroundColor=none;fillStyle=solid;fontFamily=Tahoma;fontColor=#0d0c0c;" parent="57" vertex="1">
                    <mxGeometry x="65" width="80" height="20" as="geometry"/>
                </mxCell>
                <mxCell id="52" value="" style="endArrow=none;dashed=1;html=1;fillColor=#f5f5f5;strokeColor=#666666;strokeWidth=2;exitX=0.5;exitY=1;exitDx=0;exitDy=0;gradientColor=#b3b3b3;entryX=0.5;entryY=1.05;entryDx=0;entryDy=0;entryPerimeter=0;" edge="1" parent="57" source="44" target="34">
                    <mxGeometry width="50" height="50" relative="1" as="geometry">
                        <mxPoint x="-63.059999999999945" y="-8" as="sourcePoint"/>
                        <mxPoint x="102" y="30" as="targetPoint"/>
                    </mxGeometry>
                </mxCell>
                <mxCell id="54" value="" style="sketch=0;points=[[0,0,0],[0.25,0,0],[0.5,0,0],[0.75,0,0],[1,0,0],[0,1,0],[0.25,1,0],[0.5,1,0],[0.75,1,0],[1,1,0],[0,0.25,0],[0,0.5,0],[0,0.75,0],[1,0.25,0],[1,0.5,0],[1,0.75,0]];outlineConnect=0;fontColor=#232F3E;gradientColor=#FF4F8B;gradientDirection=north;fillColor=#BC1356;strokeColor=#ffffff;dashed=0;verticalLabelPosition=bottom;verticalAlign=top;align=center;html=1;fontSize=12;fontStyle=0;aspect=fixed;shape=mxgraph.aws4.resourceIcon;resIcon=mxgraph.aws4.eventbridge;rounded=1;fillStyle=auto;opacity=80;" vertex="1" parent="57">
                    <mxGeometry x="10" y="20" width="40" height="40" as="geometry"/>
                </mxCell>
                <mxCell id="55" value="" style="sketch=0;points=[[0,0,0],[0.25,0,0],[0.5,0,0],[0.75,0,0],[1,0,0],[0,1,0],[0.25,1,0],[0.5,1,0],[0.75,1,0],[1,1,0],[0,0.25,0],[0,0.5,0],[0,0.75,0],[1,0.25,0],[1,0.5,0],[1,0.75,0]];outlineConnect=0;fontColor=#232F3E;gradientColor=#F78E04;gradientDirection=north;fillColor=#D05C17;strokeColor=#ffffff;dashed=0;verticalLabelPosition=bottom;verticalAlign=top;align=center;html=1;fontSize=12;fontStyle=0;aspect=fixed;shape=mxgraph.aws4.resourceIcon;resIcon=mxgraph.aws4.lambda;rounded=1;fillStyle=auto;opacity=80;" vertex="1" parent="57">
                    <mxGeometry x="50" y="60" width="40" height="40" as="geometry"/>
                </mxCell>
                <mxCell id="58" value="" style="shape=flexArrow;endArrow=classic;html=1;fillColor=#d5e8d4;strokeColor=#82b366;sketch=1;curveFitting=1;jiggle=2;shadow=1;rounded=1;width=9;endSize=5.09;exitX=0.5;exitY=1;exitDx=0;exitDy=0;gradientColor=#97d077;fillStyle=cross-hatch;entryX=0.5;entryY=0;entryDx=0;entryDy=0;entryPerimeter=0;" edge="1" parent="1" source="44" target="38">
                    <mxGeometry width="50" height="50" relative="1" as="geometry">
                        <mxPoint x="1031.75" y="505.0999999999999" as="sourcePoint"/>
                        <mxPoint x="948" y="567.47" as="targetPoint"/>
                    </mxGeometry>
                </mxCell>
            </root>
        </mxGraphModel>
    </diagram>
</mxfile>